<svg width="102" height="34" viewBox="0 0 102 34" fill="none" xmlns="http://www.w3.org/2000/svg">
<path d="M97.5799 25.4999C97.0133 25.1599 96.5599 24.9332 96.5599 24.4799C96.5599 23.9132 97.1266 23.7999 97.4666 23.7999C97.92 23.7999 98.3733 23.9132 98.8266 24.1399L99.0533 24.2532V23.1199H98.94C98.8266 23.0066 98.26 22.7799 97.4666 22.7799C96.22 22.7799 95.4266 23.4599 95.4266 24.5932C95.4266 25.7266 96.3333 26.1799 97.0133 26.5199C97.5799 26.8599 98.1466 27.0866 98.1466 27.6532C98.1466 28.3332 97.4666 28.3332 97.1266 28.3332C96.5599 28.3332 96.1066 28.1066 95.8799 27.8799L95.7666 27.7666L95.2 28.7866L95.3133 28.8999C95.7666 29.2399 96.4466 29.4666 97.1266 29.4666C98.4866 29.4666 99.3933 28.6732 99.3933 27.6532C99.2799 26.4066 98.3733 25.9532 97.5799 25.4999Z" fill="#8F9EB4"/>
<path d="M94.0667 23.7999L94.4067 22.7799H90.8933V29.3532H94.4067V28.3332H92.0266V26.6332H94.0667V25.6132H92.0266V23.7999H94.0667Z" fill="#8F9EB4"/>
<path d="M88.3999 29.3532H89.5332V22.7799H88.3999V29.3532Z" fill="#8F9EB4"/>
<path d="M86.1334 28.2199C85.7934 28.3332 85.4534 28.3332 85.1134 28.3332C84.5467 28.3332 83.9801 28.1066 83.6401 27.7666C83.1867 27.3132 83.0734 26.7466 83.0734 26.0666C83.0734 24.7066 83.9801 23.7999 85.3401 23.7999C85.9067 23.7999 86.4734 23.9132 86.9267 24.1399L87.1534 24.2532V23.1199H87.0401C86.7001 23.0066 86.0201 22.7799 85.2267 22.7799C83.1867 22.7799 81.7134 24.1399 81.7134 26.1799C81.7134 27.0866 82.0534 27.9932 82.6201 28.5599C83.1867 29.1266 84.0934 29.4666 85.0001 29.4666C86.1334 29.4666 86.9267 29.0132 87.1534 29.0132H87.2667V26.0666H86.1334V28.2199V28.2199Z" fill="#8F9EB4"/>
<path d="M77.8599 22.7799C75.9332 22.7799 74.5732 24.1399 74.5732 26.1799C74.5732 27.1999 74.9132 27.9932 75.4799 28.5599C76.0466 29.1266 76.8399 29.4666 77.7466 29.4666C79.6732 29.4666 81.0332 28.1066 81.0332 26.0666C81.0332 25.0466 80.6932 24.2532 80.1266 23.6866C79.4466 23.1199 78.6532 22.7799 77.8599 22.7799ZM77.8599 28.3332C77.7466 28.3332 77.7466 28.3332 77.8599 28.3332C77.2932 28.3332 76.8399 28.2199 76.4999 27.7666C76.0466 27.3132 75.9332 26.7466 75.9332 26.0666C75.9332 24.7066 76.7266 23.7999 77.9732 23.7999C78.5399 23.7999 78.9932 23.9132 79.3332 24.3666C79.7866 24.8199 79.8999 25.3866 79.8999 26.0666C79.7866 27.4266 78.9932 28.3332 77.8599 28.3332Z" fill="#8F9EB4"/>
<path d="M71.9666 22.7799H70.72V29.3532H74.2333V28.3332H71.9666V22.7799Z" fill="#8F9EB4"/>
<path d="M66.5267 22.7799C64.6 22.7799 63.24 24.1399 63.24 26.1799C63.24 27.1999 63.58 27.9932 64.1467 28.5599C64.7133 29.1266 65.5067 29.4666 66.4133 29.4666C68.34 29.4666 69.7 28.1066 69.7 26.0666C69.7 25.0466 69.36 24.2532 68.7933 23.6866C68.2267 23.1199 67.4333 22.7799 66.5267 22.7799ZM66.5267 28.4466C65.96 28.4466 65.5067 28.3332 65.1667 27.8799C64.7133 27.4266 64.6 26.8599 64.6 26.1799C64.6 24.8199 65.3933 23.9132 66.64 23.9132C67.2067 23.9132 67.66 24.0266 68 24.4799C68.4533 24.9332 68.5667 25.4999 68.5667 26.1799C68.5667 27.5399 67.66 28.4466 66.5267 28.4466Z" fill="#8F9EB4"/>
<path d="M60.6334 26.7466C60.6334 26.9733 60.6334 27.0866 60.6334 27.3133C60.5201 27.0866 60.2934 26.86 60.0667 26.6333L57.2334 22.8933H56.2134V29.4666H57.3467V25.3866C57.3467 25.2733 57.3467 25.0466 57.3467 24.9333C57.46 25.16 57.6867 25.3866 57.8 25.6133L60.7467 29.4666H61.7667V22.8933H60.6334V26.7466Z" fill="#8F9EB4"/>
<path d="M53.7201 25.4999H50.7735V22.7799H49.6401V29.4666H50.7735V26.6332H53.7201V29.4666H54.8535V22.8932H53.7201V25.4999Z" fill="#8F9EB4"/>
<path d="M48.3931 27.9933C47.9398 28.3333 47.4864 28.3333 46.9198 28.4466C46.3531 28.4466 45.8998 28.22 45.4464 27.88C44.9931 27.4266 44.8798 26.86 44.8798 26.18C44.8798 24.82 45.7864 23.9133 47.0331 23.9133C47.5998 23.9133 48.0531 24.0266 48.5064 24.2533L48.7331 24.3666V23.2333H48.6198C48.1664 23.0066 47.5998 22.8933 46.9198 22.8933C44.9931 22.8933 43.5198 24.3666 43.5198 26.2933C43.5198 27.3133 43.8598 28.1066 44.4264 28.6733C44.9931 29.24 45.7864 29.58 46.6931 29.58C47.3731 29.58 48.0531 29.4666 48.6198 29.1266L48.7331 29.0133L48.3931 27.9933V27.9933Z" fill="#8F9EB4"/>
<path d="M42.6133 23.9132L43.0666 22.7799H39.4399V29.4666H42.9533V28.3332H40.5733V26.6332H42.6133V25.6132H40.5733V24.0266H42.6133V23.9132Z" fill="#8F9EB4"/>
<path d="M34 23.9134H35.8133V29.4667H36.9467V24.0267H38.6467L39.1 23.0067H34V23.9134Z" fill="#8F9EB4"/>
<path d="M87.1532 15.98C86.0198 15.98 85.1132 15.64 84.3199 15.0733L83.1865 17.2266C84.2065 18.02 85.7932 18.36 87.2665 18.36C89.8732 18.36 92.0265 16.8866 92.0265 14.62C92.0265 10.6533 86.6998 10.88 86.6998 9.06663C86.6998 8.27329 87.2665 8.04663 88.0598 8.04663C89.0798 8.04663 90.0998 8.27329 91.2332 8.83996V6.34663C90.4398 6.00663 89.3065 5.66663 87.9465 5.66663C85.2265 5.66663 83.6399 7.36663 83.6399 9.29329C83.6399 13.1466 88.9665 12.8066 88.9665 14.8466C88.8532 15.7533 87.9465 15.98 87.1532 15.98Z" fill="#8F9EB4"/>
<path d="M75.3668 18.36C77.7468 18.36 79.4468 17.68 80.3535 16.0933C80.8068 15.4133 80.9202 14.5066 80.9202 13.3733V5.89331H77.9735V13.3733C77.9735 14.0533 77.8601 14.62 77.6335 14.96C77.1801 15.64 76.3868 16.0933 75.3668 16.0933C74.3468 16.0933 73.5535 15.7533 73.1001 14.96C72.8735 14.5066 72.7601 13.94 72.7601 13.3733V5.89331H69.8135V13.4866C69.8135 14.5066 70.0401 15.5266 70.3801 16.2066C71.4001 17.68 73.1001 18.36 75.3668 18.36Z" fill="#8F9EB4"/>
<path d="M58.3666 10.2L64.4866 18.2466H67.2066V5.89331H64.2599V13.6L58.3666 5.89331H55.4199V18.2466H58.3666V10.2V10.2Z" fill="#8F9EB4"/>
<path d="M53.8333 18.2466L48.7333 5.89331H46.3533L41.48 18.36H44.4266L45.56 15.4133H49.64L50.7733 18.36H53.8333V18.2466ZM46.3533 13.0333L46.92 11.3333C47.26 10.4266 47.3733 9.97331 47.4866 9.51998C47.6 9.97331 47.7133 10.4266 48.0533 11.3333L48.62 13.0333H46.3533Z" fill="#8F9EB4"/>
<path d="M40.0067 5.89331H37.06V14.7333C37.06 15.5266 37.06 16.32 35.8133 16.32C35.36 16.32 34.9067 16.2066 34.5667 16.0933L34 18.36C34.5667 18.5866 35.1333 18.7 36.1533 18.7C38.76 18.7 40.0067 17.1133 40.0067 14.96V5.89331Z" fill="#8F9EB4"/>
<path d="M15.64 0.56665C10.2 0.56665 1.58663 1.35998 1.58663 1.35998L1.1333 1.47332V1.92665C1.1333 1.92665 1.58663 12.3533 1.8133 18.4733C1.92663 24.3666 4.75997 29.3533 9.2933 31.8467L11.9 33.32L12.1266 33.4333L12.3533 33.32C12.4666 33.32 12.92 32.98 15.1866 31.62C18.8133 29.4666 20.74 26.52 21.08 22.5533L21.5333 9.17998H7.36663L7.5933 17L11.4466 16.4333L11.3333 13.0333H17.68L17.34 22.44C17.2266 23.9133 16.8866 25.0467 16.0933 26.0667C15.5266 26.86 14.7333 27.54 13.8266 28.1066L12.1266 29.1267L11.1066 28.56C10.0866 27.9933 8.6133 26.86 7.47997 24.9333C6.34663 23.12 5.66663 20.8533 5.5533 18.36C5.43997 14.28 5.2133 8.49998 5.09997 4.87332C8.2733 4.64665 12.4666 4.30665 15.5266 4.30665H15.64C18.7 4.30665 22.8933 4.64665 26.0666 4.87332C25.9533 8.38665 25.7266 14.28 25.5 18.36C25.3866 21.1933 24.7066 24.14 23.46 26.86C22.5533 29.0133 21.3066 30.8266 20.6266 31.5066L19.1533 33.2066L21.1933 32.0733C24.9333 30.1466 29.0133 25.5 29.24 18.36C29.4666 12.1267 29.8066 1.81332 29.8066 1.81332V1.35998H29.3533C29.4666 1.35998 20.9666 0.56665 15.64 0.56665Z" fill="#8F9EB4"/>
</svg>
