<svg width="152" height="18" viewBox="0 0 152 18" fill="none" xmlns="http://www.w3.org/2000/svg">
<path d="M134.906 1.25098H121.557V16.236H126.609V5.05798C126.605 4.99223 126.615 4.92641 126.637 4.86439C126.659 4.80236 126.693 4.74538 126.737 4.69676C126.781 4.64815 126.834 4.60889 126.894 4.58128C126.953 4.55367 127.017 4.53827 127.083 4.53598H134.459C134.59 4.54519 134.712 4.60451 134.8 4.70166C134.888 4.79882 134.936 4.92639 134.933 5.05798V16.236H139.94V6.33598C139.911 4.99974 139.372 3.72618 138.434 2.77942C137.497 1.83265 136.234 1.28533 134.906 1.25098V1.25098Z" fill="#8F9EB4"/>
<path d="M35.7218 1.29598H27.8178C26.4173 1.23984 25.0516 1.74421 24.0195 2.6988C22.9874 3.65339 22.3728 4.98051 22.3101 6.38998V11.142C22.3751 12.5506 22.9904 13.8763 24.022 14.8304C25.0536 15.7845 26.4179 16.2897 27.8178 16.236H35.6235C36.2984 16.2594 36.971 16.1439 37.6001 15.8966C38.2291 15.6493 38.8014 15.2753 39.2819 14.7975C39.7624 14.3198 40.1409 13.7484 40.3943 13.1183C40.6477 12.4882 40.7707 11.8126 40.7557 11.133V6.33598C40.7731 5.66706 40.6545 5.00161 40.4074 4.38044C40.1602 3.75926 39.7896 3.19544 39.3183 2.72355C38.8469 2.25166 38.2848 1.88163 37.6664 1.63615C37.048 1.39067 36.3863 1.27492 35.7218 1.29598V1.29598ZM35.5877 12.438C35.5854 12.5089 35.5692 12.5787 35.5401 12.6433C35.511 12.7079 35.4695 12.7662 35.418 12.8146C35.3665 12.8631 35.3061 12.9009 35.2401 12.9258C35.1741 12.9508 35.1038 12.9624 35.0334 12.96H27.8804C27.74 12.9582 27.6053 12.9037 27.5028 12.8071C27.4002 12.7105 27.3372 12.5789 27.3261 12.438V5.09398C27.3258 5.02265 27.3403 4.95205 27.3687 4.88668C27.397 4.82132 27.4386 4.76262 27.4908 4.71435C27.5429 4.66607 27.6045 4.62928 27.6716 4.60631C27.7387 4.58335 27.8098 4.57472 27.8804 4.58098H35.087C35.1556 4.5722 35.2253 4.57783 35.2916 4.5975C35.358 4.61718 35.4195 4.65047 35.4724 4.69529C35.5254 4.7401 35.5685 4.79546 35.5991 4.85789C35.6297 4.92031 35.6471 4.98844 35.6503 5.05798L35.5877 12.438Z" fill="#8F9EB4"/>
<path d="M4.47244 6.33602V16.236H9.51527V11.619C9.50747 11.4625 9.53251 11.3061 9.58874 11.16C9.64496 11.0139 9.73113 10.8814 9.84162 10.771C9.95211 10.6606 10.0844 10.5749 10.23 10.5195C10.3756 10.464 10.5312 10.44 10.6866 10.449H19.2701V7.85702H9.99809C9.86837 7.84801 9.74675 7.79028 9.65733 7.69526C9.5679 7.60025 9.5172 7.47489 9.51527 7.34402V5.09402C9.51288 5.02827 9.52354 4.9627 9.54662 4.90114C9.5697 4.83958 9.60475 4.78328 9.6497 4.73551C9.69466 4.68775 9.74862 4.64948 9.80844 4.62296C9.86826 4.59643 9.93273 4.58217 9.99809 4.58102H20.048V1.29602H9.13079C7.85323 1.3545 6.64948 1.91528 5.77836 2.85776C4.90724 3.80025 4.43833 5.04918 4.47244 6.33602V6.33602Z" fill="#8F9EB4"/>
<path d="M114.109 5.05802V16.236H119.161V6.33602C119.118 5.00535 118.57 3.74172 117.631 2.80449C116.692 1.86726 115.431 1.32751 114.109 1.29602H100.778V16.236H105.785V5.05802C105.787 4.99221 105.802 4.92752 105.83 4.86773C105.857 4.80795 105.896 4.75427 105.945 4.70985C105.993 4.66543 106.05 4.63116 106.111 4.60903C106.173 4.58691 106.238 4.57739 106.303 4.58102H113.635C113.761 4.58102 113.881 4.63128 113.97 4.72073C114.059 4.81019 114.109 4.93151 114.109 5.05802V5.05802Z" fill="#8F9EB4"/>
<path d="M55.3925 7.60498L60.9092 1.25098H54.9544L52.6297 4.01398C52.4806 4.16746 52.3026 4.28941 52.106 4.37267C51.9095 4.45594 51.6984 4.49883 51.4852 4.49883C51.272 4.49883 51.0609 4.45594 50.8643 4.37267C50.6678 4.28941 50.4898 4.16746 50.3407 4.01398L47.9624 1.25098H42.0522L47.5779 7.60498C47.7242 7.7594 47.8382 7.94184 47.9131 8.14146C47.988 8.34108 48.0223 8.55381 48.014 8.76703C48.0056 8.98025 47.9548 9.18961 47.8645 9.38268C47.7743 9.57576 47.6464 9.74861 47.4885 9.89098L42.1238 16.245H48.0339L50.3675 13.545C50.6785 13.254 51.0874 13.0922 51.512 13.0922C51.9366 13.0922 52.3455 13.254 52.6565 13.545L55.0706 16.245H60.9807L55.3925 9.93598C55.2323 9.78762 55.1045 9.60745 55.0171 9.40684C54.9297 9.20623 54.8845 8.98954 54.8845 8.77048C54.8845 8.55141 54.9297 8.33473 55.0171 8.13412C55.1045 7.9335 55.2323 7.75333 55.3925 7.60498V7.60498Z" fill="#8F9EB4"/>
<path d="M62.2058 6.39002V11.142C62.1999 11.8081 62.325 12.4687 62.5738 13.0859C62.8227 13.7031 63.1904 14.2646 63.6559 14.7381C64.1213 15.2116 64.6752 15.5878 65.2857 15.8448C65.8961 16.1019 66.5511 16.2349 67.2128 16.236H77.7455V12.96H67.7672C67.6984 12.9625 67.6298 12.9508 67.5658 12.9254C67.5017 12.9001 67.4436 12.8617 67.3949 12.8127C67.3462 12.7638 67.3081 12.7052 67.283 12.6407C67.2578 12.5763 67.2461 12.5072 67.2486 12.438V5.09402C67.2473 5.02554 67.2599 4.95752 67.2857 4.89411C67.3114 4.8307 67.3497 4.77324 67.3982 4.72523C67.4468 4.67722 67.5045 4.63967 67.568 4.61488C67.6314 4.59008 67.6992 4.57856 67.7672 4.58102H77.7455V1.29602L67.2128 1.34102C66.5542 1.33983 65.9018 1.46968 65.2932 1.72311C64.6846 1.97653 64.1318 2.34853 63.6665 2.81773C63.2012 3.28693 62.8326 3.84407 62.5819 4.45713C62.3312 5.07019 62.2034 5.72707 62.2058 6.39002V6.39002Z" fill="#8F9EB4"/>
<path d="M93.3565 1.296H85.4614C82.4393 1.296 79.9358 3.582 79.9358 6.336V11.124C79.9358 13.932 82.4393 16.182 85.4614 16.182L89.1273 16.227H93.2671C93.9424 16.2504 94.6154 16.1349 95.245 15.8877C95.8745 15.6405 96.4474 15.2666 96.9285 14.789C97.4097 14.3114 97.7891 13.7401 98.0435 13.11C98.2979 12.4798 98.422 11.8041 98.4083 11.124V6.336C98.4258 5.66552 98.3067 4.99852 98.0585 4.3761C97.8102 3.75367 97.438 3.18899 96.9647 2.71684C96.4914 2.24468 95.9272 1.87504 95.3066 1.63069C94.6861 1.38633 94.0224 1.27243 93.3565 1.296V1.296ZM93.2313 12.438C93.233 12.5109 93.2192 12.5834 93.1909 12.6505C93.1625 12.7176 93.1203 12.7779 93.067 12.8273C93.0137 12.8767 92.9505 12.9141 92.8817 12.937C92.8129 12.9598 92.7401 12.9677 92.668 12.96H85.5151C85.3783 12.9577 85.2477 12.9019 85.1509 12.8046C85.0542 12.7072 84.9988 12.5757 84.9965 12.438V5.058C84.9988 4.99219 85.0141 4.9275 85.0415 4.86772C85.0689 4.80793 85.1079 4.75426 85.1562 4.70984C85.2045 4.66542 85.2611 4.63114 85.3228 4.60902C85.3844 4.5869 85.4498 4.57737 85.5151 4.581H92.7217C92.8579 4.57105 92.9924 4.61555 93.0962 4.70485C93.2 4.79415 93.2646 4.92105 93.276 5.058L93.2313 12.438Z" fill="#8F9EB4"/>
<path d="M144.867 6.17403C144.524 6.17521 144.184 6.10841 143.867 5.97743C143.55 5.84645 143.261 5.65387 143.018 5.41067C142.775 5.16747 142.581 4.87843 142.449 4.56003C142.317 4.24164 142.248 3.90014 142.247 3.55503C142.243 3.03272 142.394 2.52113 142.68 2.08512C142.965 1.6491 143.373 1.30831 143.852 1.10596C144.33 0.903608 144.857 0.848812 145.367 0.948519C145.876 1.04823 146.345 1.29795 146.713 1.66601C147.081 2.03407 147.332 2.5039 147.435 3.01592C147.537 3.52793 147.486 4.05906 147.289 4.54196C147.091 5.02486 146.755 5.43777 146.324 5.72833C145.893 6.01889 145.386 6.17401 144.867 6.17403ZM144.867 1.21503C144.405 1.21681 143.954 1.35632 143.572 1.61591C143.189 1.8755 142.891 2.24351 142.716 2.67341C142.541 3.10332 142.497 3.57579 142.589 4.0311C142.68 4.48641 142.904 4.9041 143.232 5.23135C143.559 5.55861 143.976 5.78072 144.429 5.86961C144.882 5.9585 145.351 5.91018 145.777 5.73074C146.203 5.55131 146.566 5.24884 146.821 4.86156C147.076 4.47429 147.211 4.01961 147.209 3.55503C147.208 3.24655 147.147 2.94133 147.028 2.65678C146.91 2.37224 146.737 2.11395 146.519 1.89666C146.302 1.67937 146.044 1.50734 145.76 1.39038C145.477 1.27343 145.173 1.21384 144.867 1.21503V1.21503Z" fill="#8F9EB4"/>
<path d="M146.136 4.68898V4.17598C146.136 4.17598 146.136 3.68998 145.707 3.59998C145.817 3.55227 145.916 3.4829 145.999 3.39598C146.081 3.30906 146.146 3.20635 146.188 3.09392C146.231 2.98148 146.25 2.86162 146.246 2.74139C146.242 2.62117 146.214 2.50304 146.163 2.39398C145.949 1.74598 145.063 1.78198 145.063 1.78198H143.418V5.32798H143.91V3.81598H145.099C145.178 3.80719 145.259 3.81659 145.334 3.84348C145.409 3.87036 145.477 3.91402 145.533 3.97119C145.589 4.02835 145.631 4.09753 145.657 4.17353C145.682 4.24953 145.69 4.33037 145.68 4.40998C145.649 4.71297 145.679 5.01926 145.77 5.30998H146.333C146.226 5.11873 146.159 4.90736 146.136 4.68898ZM145.126 3.42898H143.91V2.21398H145.189C145.484 2.21398 145.734 2.39398 145.743 2.83498C145.752 3.27598 145.126 3.42898 145.126 3.42898Z" fill="#8F9EB4"/>
</svg>
