<svg width="80" height="40" viewBox="0 0 80 40" fill="none" xmlns="http://www.w3.org/2000/svg">
<path d="M52.6798 29.8C52.5805 29.7 51.587 29.1 49.9975 29.1C48.0105 29.1 46.5204 30.5 46.5204 32.4C46.5204 34.3 47.9112 35.7 49.9975 35.7C51.4877 35.7 52.4811 35.1 52.6798 35V38.4C52.2824 38.5 51.1896 38.8 49.7988 38.8C46.3217 38.8 43.1426 36.4 43.1426 32.3C43.1426 28.6 45.9243 25.8 49.7988 25.8C51.289 25.8 52.3818 26.2001 52.6798 26.2001V29.8Z" fill="#8F9EB4"/>
<path d="M27.3463 26.2001H24.1672V38.7001H27.3463V26.2001Z" fill="#8F9EB4"/>
<path d="M39.2681 29.1C39.2681 29.1 37.8772 28.7 36.7844 28.7C35.4929 28.7 34.7975 29.1 34.7975 29.7C34.7975 30.5 35.6916 30.7 36.1883 30.9L37.0824 31.2C39.0694 31.9 40.0628 33.3 40.0628 34.8C40.0628 37.9 37.2811 39 34.8968 39C33.2079 39 31.6184 38.7 31.519 38.7V35.8C31.8171 35.9 33.1086 36.3 34.4994 36.3C36.089 36.3 36.7844 35.8 36.7844 35.1C36.7844 34.5 36.1883 34.1 35.3936 33.9C35.1949 33.8 34.8968 33.7 34.6981 33.7C32.9099 33.1 31.519 32.1 31.519 30C31.519 27.7 33.3073 26.1 36.1883 26.1C37.6785 26.1 39.1687 26.5 39.2681 26.5V29.1V29.1Z" fill="#8F9EB4"/>
<path d="M19.8954 29.8C19.7961 29.7 18.8026 29.1 17.2131 29.1C15.2261 29.1 13.7359 30.5 13.7359 32.4C13.7359 34.3 15.1268 35.7 17.2131 35.7C18.7033 35.7 19.6967 35.1 19.8954 35V38.4C19.498 38.5 18.4052 38.8 17.0144 38.8C13.5372 38.8 10.3582 36.4 10.3582 32.3C10.3582 28.6 13.1399 25.8 17.0144 25.8C18.5046 25.8 19.5974 26.2001 19.8954 26.2001V29.8Z" fill="#8F9EB4"/>
<path d="M62.5151 29.2C60.6275 29.2 59.2367 30.7 59.2367 32.5C59.2367 34.3 60.6275 35.8 62.5151 35.8C64.4027 35.8 65.7935 34.3 65.7935 32.5C65.7935 30.7 64.4027 29.2 62.5151 29.2ZM69.072 32.5C69.072 36.1 66.2903 39 62.5151 39C58.74 39 55.9583 36.1 55.9583 32.5C55.9583 28.9 58.74 26 62.5151 26C66.2903 26 69.072 28.9 69.072 32.5Z" fill="#8F9EB4"/>
<path d="M7.07974 12.8C7.07974 11.9 6.38431 11.2 5.4902 11.2C4.59608 11.2 4 11.9 4 12.8V16.1C4 17 4.69542 17.7 5.58954 17.7C6.48366 17.7 7.17909 17 7.17909 16.1V12.8H7.07974Z" fill="#8F9EB4"/>
<path d="M15.6234 8.50002C15.6234 7.60002 14.928 6.90002 14.0339 6.90002C13.1398 6.90002 12.4443 7.60002 12.4443 8.50002V16.1C12.4443 17 13.1398 17.7 14.0339 17.7C14.928 17.7 15.6234 17 15.6234 16.1V8.50002Z" fill="#8F9EB4"/>
<path d="M24.2667 2.6C24.2667 1.7 23.5713 1 22.6772 1C21.7831 1 21.0876 1.7 21.0876 2.6V19.2C21.0876 20.1 21.7831 20.8 22.6772 20.8C23.5713 20.8 24.2667 20.1 24.2667 19.2V2.6Z" fill="#8F9EB4"/>
<path d="M32.8104 8.50002C32.8104 7.60002 32.115 6.90002 31.2209 6.90002C30.3268 6.90002 29.6313 7.60002 29.6313 8.50002V16.1C29.6313 17 30.3268 17.7 31.2209 17.7C32.115 17.7 32.8104 17 32.8104 16.1V8.50002Z" fill="#8F9EB4"/>
<path d="M41.3544 12.8C41.3544 11.9 40.659 11.2 39.7648 11.2C38.8707 11.2 38.1753 11.9 38.1753 12.8V16.1C38.1753 17 38.8707 17.7 39.7648 17.7C40.659 17.7 41.3544 17 41.3544 16.1V12.8Z" fill="#8F9EB4"/>
<path d="M41.3544 12.8C41.3544 11.9 40.659 11.2 39.7648 11.2C38.8707 11.2 38.1753 11.9 38.1753 12.8V16.1C38.1753 17 38.8707 17.7 39.7648 17.7C40.659 17.7 41.3544 17 41.3544 16.1V12.8Z" fill="#8F9EB4"/>
<path d="M49.8981 8.50002C49.8981 7.60002 49.2027 6.90002 48.3085 6.90002C47.4144 6.90002 46.719 7.60002 46.719 8.50002V16.1C46.719 17 47.4144 17.7 48.3085 17.7C49.2027 17.7 49.8981 17 49.8981 16.1V8.50002Z" fill="#8F9EB4"/>
<path d="M58.4418 2.6C58.4418 1.7 57.7464 1 56.8522 1C55.9581 1 55.2627 1.7 55.2627 2.6V19.2C55.2627 20.1 55.9581 20.8 56.8522 20.8C57.7464 20.8 58.4418 20.1 58.4418 19.2V2.6Z" fill="#8F9EB4"/>
<path d="M66.9857 8.50002C66.9857 7.60002 66.2903 6.90002 65.3962 6.90002C64.5021 6.90002 63.8066 7.60002 63.8066 8.50002V16.1C63.8066 17 64.5021 17.7 65.3962 17.7C66.2903 17.7 66.9857 17 66.9857 16.1V8.50002Z" fill="#8F9EB4"/>
<path d="M75.5294 12.8C75.5294 11.9 74.834 11.2 73.9399 11.2C73.0458 11.2 72.3503 11.9 72.3503 12.8V16.1C72.3503 17 73.0458 17.7 73.9399 17.7C74.834 17.7 75.5294 17 75.5294 16.1V12.8Z" fill="#8F9EB4"/>
<path d="M73.7412 37.1V37.3H73.1451V38.8H72.9464V37.3H72.3503V37.1H73.7412Z" fill="#8F9EB4"/>
<path d="M73.8406 37.1H74.238L74.7347 38.5L75.2314 37.1H75.5294V38.7H75.3308V37.4L74.834 38.7H74.536L74.0393 37.4V38.7H73.8406V37.1Z" fill="#8F9EB4"/>
</svg>
