<svg width="154" height="33" viewBox="0 0 154 33" fill="none" xmlns="http://www.w3.org/2000/svg">
<path d="M66.3667 8.58007V24.4201H63.6167V11.9901H63.5801L58.6667 24.4201H56.8334L51.8101 11.9901H51.7734V24.4201H49.2434V8.58007H53.2034L57.7501 20.3134H57.8234L62.6267 8.58007H66.3667V8.58007ZM68.6401 9.79007C68.6401 9.35007 68.7867 8.9834 69.1167 8.69007C69.4467 8.39674 69.8134 8.25007 70.2534 8.25007C70.7301 8.25007 71.1334 8.39674 71.4267 8.69007C71.7201 8.9834 71.9034 9.35007 71.9034 9.79007C71.9034 10.2301 71.7567 10.5967 71.4267 10.8901C71.0967 11.1834 70.7301 11.3301 70.2534 11.3301C69.7767 11.3301 69.4101 11.1834 69.1167 10.8901C68.8234 10.5601 68.6401 10.1934 68.6401 9.79007ZM71.6101 13.0534V24.4201H68.9334V13.0534H71.6101ZM79.7134 22.4767C80.1167 22.4767 80.5567 22.4034 81.0334 22.1834C81.5101 22.0001 81.9501 21.7434 82.3534 21.4501V23.9434C81.9134 24.2001 81.4367 24.3834 80.8867 24.4934C80.3367 24.6034 79.7501 24.6767 79.0901 24.6767C77.4034 24.6767 76.0467 24.1634 75.0201 23.1001C73.9567 22.0367 73.4434 20.6801 73.4434 19.0667C73.4434 17.2334 73.9934 15.7301 75.0567 14.5567C76.1201 13.3834 77.6234 12.7967 79.6034 12.7967C80.1167 12.7967 80.6301 12.8701 81.1067 12.9801C81.6201 13.0901 82.0234 13.2734 82.3167 13.4201V15.9867C81.9134 15.6934 81.4734 15.4367 81.0701 15.2901C80.6301 15.1434 80.1901 15.0334 79.7501 15.0334C78.6867 15.0334 77.8434 15.3634 77.1834 16.0601C76.5234 16.7567 76.2301 17.6734 76.2301 18.8467C76.2301 19.9834 76.5601 20.9001 77.1834 21.5234C77.8067 22.1467 78.6501 22.4767 79.7134 22.4767ZM89.9434 12.8701C90.1634 12.8701 90.3467 12.8701 90.5301 12.9067C90.7134 12.9434 90.8601 12.9801 90.9701 13.0167V15.7301C90.8234 15.6201 90.6401 15.5101 90.3467 15.4367C90.0534 15.3634 89.7601 15.2901 89.3567 15.2901C88.6967 15.2901 88.1467 15.5834 87.7067 16.1334C87.2667 16.6834 87.0101 17.5267 87.0101 18.7001V24.4201H84.3334V13.0534H87.0101V14.8501H87.0467C87.3034 14.2267 87.6701 13.7501 88.1467 13.3834C88.6601 13.0534 89.2467 12.8701 89.9434 12.8701ZM91.1167 18.9201C91.1167 17.0501 91.6667 15.5467 92.6934 14.4467C93.7567 13.3467 95.2234 12.7967 97.0934 12.7967C98.8534 12.7967 100.247 13.3101 101.237 14.3734C102.227 15.4367 102.74 16.8667 102.74 18.6634C102.74 20.4967 102.19 21.9634 101.163 23.0634C100.1 24.1634 98.6701 24.7134 96.8367 24.7134C95.0767 24.7134 93.6834 24.2001 92.6567 23.1734C91.6301 22.1101 91.1167 20.6801 91.1167 18.9201ZM93.9034 18.8101C93.9034 19.9834 94.1601 20.9001 94.7101 21.5234C95.2601 22.1467 96.0301 22.4767 97.0201 22.4767C97.9734 22.4767 98.7434 22.1834 99.2567 21.5234C99.7701 20.9001 100.027 19.9834 100.027 18.7367C100.027 17.5267 99.7701 16.6101 99.2567 15.9501C98.7434 15.3267 97.9734 14.9967 97.0567 14.9967C96.0667 14.9967 95.3334 15.3267 94.7834 15.9867C94.1601 16.6834 93.9034 17.6001 93.9034 18.8101ZM106.737 16.0601C106.737 16.4267 106.847 16.7567 107.103 16.9767C107.36 17.1967 107.873 17.4534 108.717 17.7834C109.78 18.2234 110.55 18.7001 110.953 19.2134C111.393 19.7634 111.613 20.3867 111.613 21.1567C111.613 22.2201 111.21 23.0634 110.367 23.7234C109.56 24.3834 108.423 24.6767 107.03 24.6767C106.553 24.6767 106.04 24.6034 105.453 24.4934C104.867 24.3834 104.39 24.2367 103.987 24.0534V21.4134C104.463 21.7434 105.013 22.0367 105.563 22.2201C106.113 22.4034 106.627 22.5134 107.103 22.5134C107.69 22.5134 108.167 22.4401 108.423 22.2567C108.717 22.0734 108.863 21.8167 108.863 21.4134C108.863 21.0467 108.717 20.7534 108.423 20.4601C108.13 20.2034 107.543 19.9101 106.737 19.5801C105.747 19.1767 105.05 18.7001 104.647 18.1867C104.243 17.6734 104.023 17.0134 104.023 16.2067C104.023 15.1801 104.427 14.3367 105.233 13.6767C106.04 13.0167 107.103 12.6867 108.387 12.6867C108.79 12.6867 109.23 12.7234 109.707 12.8334C110.183 12.9434 110.623 13.0534 110.953 13.1634V15.7667C110.587 15.5467 110.183 15.3267 109.707 15.1434C109.23 14.9601 108.753 14.8867 108.313 14.8867C107.8 14.8867 107.397 14.9967 107.14 15.1801C106.883 15.4367 106.737 15.6934 106.737 16.0601ZM112.75 18.9201C112.75 17.0501 113.3 15.5467 114.327 14.4467C115.39 13.3467 116.857 12.7967 118.727 12.7967C120.487 12.7967 121.88 13.3101 122.87 14.3734C123.86 15.4367 124.373 16.8667 124.373 18.6634C124.373 20.4967 123.823 21.9634 122.797 23.0634C121.733 24.1634 120.303 24.7134 118.47 24.7134C116.71 24.7134 115.317 24.2001 114.29 23.1734C113.3 22.1101 112.75 20.6801 112.75 18.9201ZM115.537 18.8101C115.537 19.9834 115.793 20.9001 116.343 21.5234C116.893 22.1467 117.663 22.4767 118.653 22.4767C119.607 22.4767 120.377 22.1834 120.89 21.5234C121.403 20.9001 121.66 19.9834 121.66 18.7367C121.66 17.5267 121.403 16.6101 120.89 15.9501C120.377 15.3267 119.607 14.9967 118.69 14.9967C117.7 14.9967 116.967 15.3267 116.417 15.9867C115.83 16.6834 115.537 17.6001 115.537 18.8101ZM133.283 15.2534H129.287V24.4201H126.573V15.2534H124.667V13.0534H126.573V11.4767C126.573 10.3034 126.977 9.31341 127.747 8.54341C128.517 7.77341 129.507 7.40674 130.717 7.40674C131.047 7.40674 131.34 7.44341 131.597 7.44341C131.853 7.44341 132.073 7.51674 132.257 7.59007V9.90007C132.183 9.86341 132 9.79007 131.78 9.71674C131.56 9.64341 131.303 9.60674 131.01 9.60674C130.46 9.60674 130.02 9.79007 129.727 10.1201C129.433 10.4501 129.287 11.0001 129.287 11.6601V13.0167H133.283V10.4501L135.96 9.6434V13.0167H138.673V15.2167H135.96V20.5334C135.96 21.2301 136.107 21.7067 136.327 22.0001C136.583 22.2934 136.987 22.4401 137.537 22.4401C137.683 22.4401 137.867 22.4034 138.087 22.3301C138.307 22.2567 138.49 22.1834 138.637 22.0734V24.2734C138.453 24.3834 138.197 24.4567 137.793 24.5301C137.39 24.6034 137.023 24.6401 136.62 24.6401C135.483 24.6401 134.64 24.3467 134.09 23.7601C133.54 23.1734 133.247 22.2567 133.247 21.0467L133.283 15.2534Z" fill="#8F9EB4" fill-opacity="0.95"/>
<path d="M27.4267 3.30005H14.8867V15.84H27.4267V3.30005Z" fill="#8F9EB4" fill-opacity="0.78"/>
<path d="M41.2868 3.30005H28.7468V15.84H41.2868V3.30005Z" fill="#8F9EB4"/>
<path d="M27.4267 17.16H14.8867V29.7H27.4267V17.16Z" fill="#8F9EB4" fill-opacity="0.84"/>
<path d="M41.2868 17.16H28.7468V29.7H41.2868V17.16Z" fill="#8F9EB4" fill-opacity="0.74"/>
</svg>
